<svg width="34" height="35" viewBox="0 0 34 35" fill="none" xmlns="http://www.w3.org/2000/svg">
<path d="M32.581 31.1951L23.9305 21.2927C25.6804 19.0488 26.7155 16.2683 26.7155 13.2195C26.7155 5.92683 20.7267 0 13.3577 0C5.9888 0 0 5.92683 0 13.2195C0 20.5122 5.9888 26.439 13.3577 26.439C16.4137 26.439 19.2233 25.4146 21.4907 23.7073L29.9933 33.439C30.3383 33.8293 30.8066 34.0244 31.2995 34.0244C31.6938 34.0244 32.1128 33.8781 32.4332 33.6098C33.1232 32.9756 33.2218 31.9024 32.581 31.1951ZM3.45034 13.2195C3.45034 7.80488 7.88648 3.41463 13.3577 3.41463C18.829 3.41463 23.2651 7.80488 23.2651 13.2195C23.2651 15.7561 22.2793 18.0976 20.6527 19.8293C20.6034 19.878 20.5295 19.9024 20.4802 19.9512C20.357 20.0488 20.2584 20.1707 20.1598 20.3171C18.3854 22 15.9948 23.0244 13.3331 23.0244C7.88648 23.0244 3.45034 18.6341 3.45034 13.2195Z" fill="white"/>
</svg>
